<svg xmlns="http://www.w3.org/2000/svg" xmlns:xlink="http://www.w3.org/1999/xlink" fill="none" version="1.1" width="14" height="14" viewBox="0 0 14 14"><defs><clipPath id="master_svg0_123_1008"><rect x="0" y="0" width="14" height="14" rx="0"/></clipPath></defs><g clip-path="url(#master_svg0_123_1008)"><g><path d="M11.72119390625,9.708343505859375L10.35875390625,9.708343505859375Q10.30951390625,9.708343505859375,10.26121390625,9.717953505859375Q10.21291390625,9.727553505859374,10.167413906250001,9.746403505859375Q10.12191390625,9.765243505859376,10.08097390625,9.792603505859375Q10.04002390625,9.819963505859375,10.00520390625,9.854793505859375Q9.97038390625,9.889613505859375,9.94302390625,9.930553505859375Q9.91566390625,9.971503505859374,9.89681390625,10.017003505859375Q9.87797390625,10.062493505859376,9.86836390625,10.110793505859375Q9.85875390625,10.159093505859374,9.85875390625,10.208343505859375Q9.85875390625,10.257593505859376,9.86836390625,10.305883505859375Q9.87797390625,10.354183505859375,9.89681390625,10.399683505859375Q9.91566390625,10.445183505859376,9.94302390625,10.486123505859375Q9.97038390625,10.527073505859375,10.00520390625,10.561893505859375Q10.04002390625,10.596713505859375,10.08097390625,10.624073505859375Q10.12191390625,10.651433505859375,10.167413906250001,10.670283505859375Q10.21291390625,10.689123505859374,10.26121390625,10.698733505859375Q10.30951390625,10.708343505859375,10.35875390625,10.708343505859375L11.72119390625,10.708343505859375Q12.26808390625,10.708343505859375,12.65479390625,10.321633505859374Q13.04150390625,9.934923505859375,13.04150390625,9.388033505859376L13.04150390625,2.278655505859375Q13.04150390625,1.731765505859375,12.65479390625,1.345054505859375Q12.26808390625,0.958343505859375,11.72119390625,0.958343505859375L4.61181590625,0.958343505859375Q4.06492490625,0.958343505859375,3.67821490625,1.345054505859375Q3.29150390625,1.731764505859375,3.29150390625,2.278656505859375L3.29150390625,3.625893505859375Q3.29150390625,3.675143505859375,3.30111090625,3.723433505859375Q3.31071890625,3.771733505859375,3.3295639062499998,3.817233505859375Q3.34840990625,3.862733505859375,3.37576890625,3.903673505859375Q3.40312890625,3.944623505859375,3.43795090625,3.979443505859375Q3.47277290625,4.014263505859375,3.51371890625,4.041623505859375Q3.55466490625,4.068983505859375,3.60016190625,4.0878335058593755Q3.64565890625,4.106673505859375,3.69395880625,4.116283505859375Q3.74225820625,4.125893505859375,3.79150390625,4.125893505859375Q3.84074960625,4.125893505859375,3.88904900625,4.116283505859375Q3.93734890625,4.106673505859375,3.98284590625,4.0878335058593755Q4.02834290625,4.068983505859375,4.06928890625,4.041623505859375Q4.11023490625,4.014263505859375,4.14505690625,3.979443505859375Q4.17987890625,3.944623505859375,4.20723890625,3.903673505859375Q4.23459790625,3.862733505859375,4.25344390625,3.817233505859375Q4.27228890625,3.771733505859375,4.28189690625,3.723433505859375Q4.29150390625,3.675143505859375,4.29150390625,3.625893505859375L4.29150390625,2.278655505859375Q4.29150390625,1.958343505859375,4.61181590625,1.958343505859375L11.72119390625,1.958343505859375Q12.04150390625,1.958343505859375,12.04150390625,2.278655505859375L12.04150390625,9.388033505859376Q12.04150390625,9.708343505859375,11.72119390625,9.708343505859375Z" fill-rule="evenodd" fill="#333333" fill-opacity="1"/></g><g><path d="M10.70849609375,11.721346494140626L10.70849609375,4.611968494140625Q10.70849609375,4.065078494140625,10.32178609375,3.678367494140625Q9.93507609375,3.291656494140625,9.38818609375,3.291656494140625L2.27880809375,3.291656494140625Q1.73191709375,3.291656494140625,1.34520709375,3.678367494140625Q0.95849609375,4.065077494140625,0.95849609375,4.611969494140625L0.95849609375,11.721346494140626Q0.95849609375,12.268236494140625,1.3452060937499999,12.654946494140624Q1.73191809375,13.041656494140625,2.27880809375,13.041656494140625L9.38818609375,13.041656494140625Q9.93507609375,13.041656494140625,10.32178609375,12.654946494140624Q10.70849609375,12.268236494140625,10.70849609375,11.721346494140626ZM9.38818609375,4.291656494140625Q9.70849609375,4.291656494140625,9.70849609375,4.611968494140625L9.70849609375,11.721346494140626Q9.70849609375,12.041656494140625,9.38818609375,12.041656494140625L2.27880809375,12.041656494140625Q1.95849609375,12.041656494140625,1.95849609375,11.721346494140626L1.95849609375,4.611968494140625Q1.95849609375,4.291656494140625,2.27880809375,4.291656494140625L9.38818609375,4.291656494140625Z" fill-rule="evenodd" fill="#333333" fill-opacity="1"/></g></g></svg>