<svg xmlns="http://www.w3.org/2000/svg" xmlns:xlink="http://www.w3.org/1999/xlink" fill="none" version="1.1" width="14" height="14" viewBox="0 0 14 14"><defs><clipPath id="master_svg0_123_0970"><rect x="0" y="0" width="14" height="14" rx="0"/></clipPath></defs><g clip-path="url(#master_svg0_123_0970)"><g><rect x="0" y="0" width="14" height="14" rx="0" fill="#FFFFFF" fill-opacity="0.009999999776482582"/></g><g><path d="M1.25,12.250001752929688L1.25,9.916671752929688Q1.25,9.867426052929687,1.259607,9.819126652929688Q1.269215,9.770826752929688,1.28806,9.725329752929687Q1.3069060000000001,9.679832752929688,1.334265,9.638886752929688Q1.361625,9.597940752929688,1.396447,9.563118752929688Q1.431269,9.528296752929688,1.472215,9.500936752929688Q1.513161,9.473577752929687,1.5586579999999999,9.454731752929687Q1.604155,9.435886752929687,1.6524549,9.426278752929688Q1.7007543,9.416671752929688,1.75,9.416671752929688L12.25,9.416671752929688Q12.2992,9.416671752929688,12.3475,9.426278752929688Q12.3958,9.435886752929687,12.4413,9.454731752929687Q12.4868,9.473577752929687,12.5278,9.500936752929688Q12.5687,9.528296752929688,12.6036,9.563118752929688Q12.6384,9.597940752929688,12.6657,9.638886752929688Q12.6931,9.679832752929688,12.7119,9.725329752929687Q12.7308,9.770826752929688,12.7404,9.819126652929688Q12.75,9.867426052929687,12.75,9.916671752929688L12.75,12.250001752929688Q12.75,12.299251752929688,12.7404,12.347551752929688Q12.7308,12.395851752929687,12.7119,12.441341752929688Q12.6931,12.486841752929688,12.6657,12.527791752929687Q12.6384,12.568731752929688,12.6036,12.603561752929688Q12.5687,12.638381752929687,12.5278,12.665741752929687Q12.4868,12.693101752929687,12.4413,12.711941752929688Q12.3958,12.730791752929687,12.3475,12.740401752929687Q12.2992,12.750001752929688,12.25,12.750001752929688L1.75,12.750001752929688Q1.7007543,12.750001752929688,1.6524549,12.740401752929687Q1.604155,12.730791752929687,1.5586579999999999,12.711941752929688Q1.513161,12.693101752929687,1.472215,12.665741752929687Q1.431269,12.638381752929687,1.396447,12.603561752929688Q1.361625,12.568731752929688,1.334265,12.527791752929687Q1.3069060000000001,12.486841752929688,1.28806,12.441341752929688Q1.269215,12.395851752929687,1.259607,12.347551752929688Q1.25,12.299251752929688,1.25,12.250001752929688ZM2.25,10.416671752929688L2.25,11.750001752929688L11.75,11.750001752929688L11.75,10.416671752929688L2.25,10.416671752929688Z" fill="#333333" fill-opacity="1"/></g><g><path d="M1.25,8.166658247070313L1.25,5.8333282470703125Q1.25,5.784082547070312,1.259607,5.735783147070313Q1.269215,5.687483247070313,1.28806,5.641986247070313Q1.3069060000000001,5.596489247070313,1.334265,5.555543247070313Q1.361625,5.514597247070313,1.396447,5.479775247070313Q1.431269,5.444953247070313,1.472215,5.417593247070313Q1.513161,5.390234247070312,1.5586579999999999,5.371388247070312Q1.604155,5.3525432470703125,1.6524549,5.342935247070312Q1.7007543,5.3333282470703125,1.75,5.3333282470703125L12.25,5.3333282470703125Q12.2992,5.3333282470703125,12.3475,5.342935247070312Q12.3958,5.3525432470703125,12.4413,5.371388247070312Q12.4868,5.390234247070312,12.5278,5.417593247070313Q12.5687,5.444953247070313,12.6036,5.479775247070313Q12.6384,5.514597247070313,12.6657,5.555543247070313Q12.6931,5.596489247070313,12.7119,5.641986247070313Q12.7308,5.687483247070313,12.7404,5.735783147070313Q12.75,5.784082547070312,12.75,5.8333282470703125L12.75,8.166658247070313Q12.75,8.215908247070313,12.7404,8.264208247070313Q12.7308,8.312508247070312,12.7119,8.357998247070313Q12.6931,8.403498247070313,12.6657,8.444448247070312Q12.6384,8.485388247070313,12.6036,8.520218247070313Q12.5687,8.555038247070312,12.5278,8.582398247070312Q12.4868,8.609758247070312,12.4413,8.628598247070313Q12.3958,8.647448247070312,12.3475,8.657058247070312Q12.2992,8.666658247070313,12.25,8.666658247070313L1.75,8.666658247070313Q1.7007543,8.666658247070313,1.6524549,8.657058247070312Q1.604155,8.647448247070312,1.5586579999999999,8.628598247070313Q1.513161,8.609758247070312,1.472215,8.582398247070312Q1.431269,8.555038247070312,1.396447,8.520218247070313Q1.361625,8.485388247070313,1.334265,8.444448247070312Q1.3069060000000001,8.403498247070313,1.28806,8.357998247070313Q1.269215,8.312508247070312,1.259607,8.264208247070313Q1.25,8.215908247070313,1.25,8.166658247070313ZM2.25,6.3333282470703125L2.25,7.666658247070313L11.75,7.666658247070313L11.75,6.3333282470703125L2.25,6.3333282470703125Z" fill="#333333" fill-opacity="1"/></g><g><path d="M6.64645,1.396447L4.896447,3.1464499999999997Q4.82612,3.21677,4.78806,3.3086599999999997Q4.75,3.40054,4.75,3.5Q4.75,3.5120199999999997,4.750577,3.52402Q4.755055,3.61714,4.792791,3.70238Q4.830526,3.78763,4.896447,3.85355Q4.966773,3.92388,5.058658,3.96194Q5.1505438,4,5.25,4Q5.3494562,4,5.441342,3.96194Q5.533227,3.92388,5.603553,3.85355L5.603741,3.85337L7,2.457107L8.39619,3.85329L8.39645,3.85355Q8.46677,3.92388,8.55866,3.96194Q8.65054,4,8.75,4Q8.84946,4,8.94134,3.96194Q9.03323,3.92388,9.10355,3.85355Q9.17388,3.78323,9.21194,3.6913400000000003Q9.25,3.59946,9.25,3.5Q9.25,3.40054,9.21194,3.3086599999999997Q9.17388,3.21677,9.10355,3.1464499999999997L7.35355,1.396447Q7.28323,1.32612,7.19134,1.28806Q7.0994600000000005,1.25,7,1.25Q6.9005399999999995,1.25,6.80866,1.28806Q6.71677,1.32612,6.64645,1.396447Z" fill-rule="evenodd" fill="#333333" fill-opacity="1"/></g><g><path d="M6.5,8.166671752929688L6.5,9.916671752929688Q6.5,9.965921752929688,6.509607,10.014211752929688Q6.519215,10.062511752929687,6.53806,10.108011752929688Q6.556906,10.153511752929688,6.584265,10.194451752929687Q6.611625,10.235401752929688,6.646447,10.270221752929688Q6.681269,10.305041752929688,6.722215,10.332401752929687Q6.763161,10.359761752929687,6.808658,10.378611752929688Q6.854155,10.397451752929687,6.9024549,10.407061752929687Q6.9507543,10.416671752929688,7,10.416671752929688Q7.0492457,10.416671752929688,7.0975451,10.407061752929687Q7.145845,10.397451752929687,7.191342,10.378611752929688Q7.236839,10.359761752929687,7.277785,10.332401752929687Q7.318731,10.305041752929688,7.353553,10.270221752929688Q7.388375,10.235401752929688,7.415735,10.194451752929687Q7.443094,10.153511752929688,7.46194,10.108011752929688Q7.480785,10.062511752929687,7.490393,10.014211752929688Q7.5,9.965921752929688,7.5,9.916671752929688L7.5,8.166671752929688Q7.5,8.117426052929687,7.490393,8.069126652929688Q7.480785,8.020826752929688,7.46194,7.975329752929688Q7.443094,7.929832752929688,7.415735,7.888886752929688Q7.388375,7.847940752929688,7.353553,7.813118752929688Q7.318731,7.778296752929688,7.277785,7.750936752929688Q7.236839,7.723577752929687,7.191342,7.704731752929687Q7.145845,7.6858867529296875,7.0975451,7.676278752929687Q7.0492457,7.6666717529296875,7,7.6666717529296875Q6.9507543,7.6666717529296875,6.9024549,7.676278752929687Q6.854155,7.6858867529296875,6.808658,7.704731752929687Q6.763161,7.723577752929687,6.722215,7.750936752929688Q6.681269,7.778296752929688,6.646447,7.813118752929688Q6.611625,7.847940752929688,6.584265,7.888886752929688Q6.556906,7.929832752929688,6.53806,7.975329752929688Q6.519215,8.020826752929688,6.509607,8.069126652929688Q6.5,8.117426052929687,6.5,8.166671752929688Z" fill-rule="evenodd" fill="#333333" fill-opacity="1"/></g><g><path d="M6.5,1.75L6.5,5.83333Q6.5,5.88258,6.509607,5.93088Q6.519215,5.97918,6.53806,6.02467Q6.556906,6.07017,6.584265,6.11112Q6.611625,6.15206,6.646447,6.18689Q6.681269,6.22171,6.722215,6.24907Q6.763161,6.27643,6.808658,6.29527Q6.854155,6.31412,6.9024549,6.32373Q6.9507543,6.33333,7,6.33333Q7.0492457,6.33333,7.0975451,6.32373Q7.145845,6.31412,7.191342,6.29527Q7.236839,6.27643,7.277785,6.24907Q7.318731,6.22171,7.353553,6.18689Q7.388375,6.15206,7.415735,6.11112Q7.443094,6.07017,7.46194,6.02467Q7.480785,5.97918,7.490393,5.93088Q7.5,5.88258,7.5,5.83333L7.5,1.75Q7.5,1.7007543,7.490393,1.6524549Q7.480785,1.604155,7.46194,1.5586579999999999Q7.443094,1.513161,7.415735,1.472215Q7.388375,1.431269,7.353553,1.396447Q7.318731,1.361625,7.277785,1.334265Q7.236839,1.3069060000000001,7.191342,1.28806Q7.145845,1.269215,7.0975451,1.259607Q7.0492457,1.25,7,1.25Q6.9507543,1.25,6.9024549,1.259607Q6.854155,1.269215,6.808658,1.28806Q6.763161,1.3069060000000001,6.722215,1.334265Q6.681269,1.361625,6.646447,1.396447Q6.611625,1.431269,6.584265,1.472215Q6.556906,1.513161,6.53806,1.5586579999999999Q6.519215,1.604155,6.509607,1.6524549Q6.5,1.7007543,6.5,1.75Z" fill-rule="evenodd" fill="#333333" fill-opacity="1"/></g></g></svg>