<svg xmlns="http://www.w3.org/2000/svg" xmlns:xlink="http://www.w3.org/1999/xlink" fill="none" version="1.1" width="14" height="14" viewBox="0 0 14 14"><defs><clipPath id="master_svg0_123_1024"><rect x="0" y="0" width="14" height="14" rx="0"/></clipPath></defs><g clip-path="url(#master_svg0_123_1024)"><g><rect x="0" y="0" width="14" height="14" rx="0" fill="#FFFFFF" fill-opacity="0.009999999776482582"/></g><g><path d="M1.25,10.83335701171875L1.25,8.41668701171875Q1.25,7.38115301171875,1.982233,6.64892001171875Q2.714466,5.91668701171875,3.75,5.91668701171875L10.25,5.91668701171875Q11.28553,5.91668701171875,12.0178,6.64892001171875Q12.75,7.38115201171875,12.75,8.41668701171875L12.75,10.83335701171875Q12.75,11.868887011718751,12.0178,12.601117011718749Q11.28553,13.33335701171875,10.25,13.33335701171875L3.75,13.33335701171875Q2.714467,13.33335701171875,1.982233,12.601117011718749Q1.25,11.868887011718751,1.25,10.83335701171875ZM2.25,10.83335701171875Q2.25,11.45467701171875,2.68934,11.89401701171875Q3.12868,12.33335701171875,3.75,12.33335701171875L10.25,12.33335701171875Q10.87132,12.33335701171875,11.31066,11.89401701171875Q11.75,11.45467701171875,11.75,10.83335701171875L11.75,8.41668701171875Q11.75,7.79536701171875,11.31066,7.35602701171875Q10.87132,6.91668701171875,10.25,6.91668701171875L3.75,6.91668701171875Q3.12868,6.91668701171875,2.68934,7.35602701171875Q2.25,7.79536701171875,2.25,8.41668701171875L2.25,10.83335701171875Z" fill="#333333" fill-opacity="1"/></g><g><path d="M9.41682609375,4.08335701171875L9.41682609375,6.41668701171875Q9.41682609375,6.46593701171875,9.426436093749999,6.51423701171875Q9.43604609375,6.56252701171875,9.45488609375,6.60802701171875Q9.47373609375,6.65352701171875,9.50109609375,6.69446701171875Q9.52845609375,6.73541701171875,9.56327609375,6.77023701171875Q9.59809609375,6.80506701171875,9.63904609375,6.83241701171875Q9.67998609375,6.85977701171875,9.72548609375,6.87862701171875Q9.77098609375,6.89746701171875,9.81928609375,6.90707701171875Q9.867586093749999,6.91668701171875,9.91682609375,6.91668701171875Q9.96607609375,6.91668701171875,10.01437609375,6.90707701171875Q10.06267609375,6.89746701171875,10.10816609375,6.87862701171875Q10.153666093750001,6.85977701171875,10.19461609375,6.83241701171875Q10.235556093749999,6.80506701171875,10.27038609375,6.77023701171875Q10.30520609375,6.73541701171875,10.33256609375,6.69446701171875Q10.359926093750001,6.65352701171875,10.37876609375,6.60802701171875Q10.397616093749999,6.56252701171875,10.407226093750001,6.51423701171875Q10.41682609375,6.46593701171875,10.41682609375,6.41668701171875L10.41682609375,4.08335701171875Q10.41682609375,2.66812701171875,9.416106093749999,1.66740501171875Q8.41538609375,0.66668701171875,7.00016609375,0.66668701171875Q5.58494609375,0.66668701171875,4.58422009375,1.66740501171875Q3.58349609375,2.66812701171875,3.58349609375,4.08335701171875L3.58349609375,6.41668701171875Q3.58349609375,6.46593701171875,3.59310309375,6.51423701171875Q3.60271109375,6.56252701171875,3.6215560937499998,6.60802701171875Q3.64040209375,6.65352701171875,3.66776109375,6.69446701171875Q3.69512109375,6.73541701171875,3.72994309375,6.77023701171875Q3.76476509375,6.80506701171875,3.80571109375,6.83241701171875Q3.84665709375,6.85977701171875,3.89215409375,6.87862701171875Q3.93765109375,6.89746701171875,3.98595099375,6.90707701171875Q4.03425039375,6.91668701171875,4.08349609375,6.91668701171875Q4.13274179375,6.91668701171875,4.18104119375,6.90707701171875Q4.22934109375,6.89746701171875,4.27483809375,6.87862701171875Q4.32033509375,6.85977701171875,4.36128109375,6.83241701171875Q4.40222709375,6.80506701171875,4.43704909375,6.77023701171875Q4.47187109375,6.73541701171875,4.49923109375,6.69446701171875Q4.52659009375,6.65352701171875,4.54543609375,6.60802701171875Q4.56428109375,6.56252701171875,4.57388909375,6.51423701171875Q4.58349609375,6.46593701171875,4.58349609375,6.41668701171875L4.58349609375,4.08335701171875Q4.58349609375,3.0823370117187503,5.2913260937499995,2.37451701171875Q5.99915609375,1.66668701171875,7.00016609375,1.66668701171875Q8.00117609375,1.66668701171875,8.708996093749999,2.37451701171875Q9.41682609375,3.0823370117187503,9.41682609375,4.08335701171875Z" fill-rule="evenodd" fill="#333333" fill-opacity="1"/></g><g><path d="M6.5,8.75L6.5,10.5Q6.5,10.54925,6.509607,10.59754Q6.519215,10.64584,6.53806,10.69134Q6.556906,10.73684,6.584265,10.77778Q6.611625,10.81873,6.646447,10.85355Q6.681269,10.88837,6.722215,10.91573Q6.763161,10.94309,6.808658,10.96194Q6.854155,10.98078,6.9024549,10.99039Q6.9507543,11,7,11Q7.0492457,11,7.0975451,10.99039Q7.145845,10.98078,7.191342,10.96194Q7.236839,10.94309,7.277785,10.91573Q7.318731,10.88837,7.353553,10.85355Q7.388375,10.81873,7.415735,10.77778Q7.443094,10.73684,7.46194,10.69134Q7.480785,10.64584,7.490393,10.59754Q7.5,10.54925,7.5,10.5L7.5,8.75Q7.5,8.7007543,7.490393,8.6524549Q7.480785,8.604155,7.46194,8.558658Q7.443094,8.513161,7.415735,8.472215Q7.388375,8.431269,7.353553,8.396447Q7.318731,8.361625,7.277785,8.334265Q7.236839,8.306906,7.191342,8.28806Q7.145845,8.269214999999999,7.0975451,8.259607Q7.0492457,8.25,7,8.25Q6.9507543,8.25,6.9024549,8.259607Q6.854155,8.269214999999999,6.808658,8.28806Q6.763161,8.306906,6.722215,8.334265Q6.681269,8.361625,6.646447,8.396447Q6.611625,8.431269,6.584265,8.472215Q6.556906,8.513161,6.53806,8.558658Q6.519215,8.604155,6.509607,8.6524549Q6.5,8.7007543,6.5,8.75Z" fill-rule="evenodd" fill="#333333" fill-opacity="1"/></g></g></svg>