<svg xmlns="http://www.w3.org/2000/svg" xmlns:xlink="http://www.w3.org/1999/xlink" fill="none" version="1.1" width="14" height="14" viewBox="0 0 14 14"><defs><clipPath id="master_svg0_123_0956"><rect x="0" y="0" width="14" height="14" rx="0"/></clipPath></defs><g clip-path="url(#master_svg0_123_0956)"><g><rect x="0" y="0" width="14" height="14" rx="0" fill="#FFFFFF" fill-opacity="0.009999999776482582"/></g><g><path d="M8.85342,1.95831298828125L9.13219,3.58446298828125L10.11781,3.41549298828125L9.76781,1.37383098828125Q9.760390000000001,1.33056798828125,9.74555,1.28925898828125Q9.73071,1.24794998828125,9.7089,1.20985898828125Q9.687090000000001,1.17176698828125,9.65898,1.13805898828125Q9.63086,1.10434998828125,9.5973,1.07605598828125Q9.563749999999999,1.04776098828125,9.52577,1.02574698828125Q9.4878,1.0037319882812499,9.446570000000001,0.98866998828125Q9.405339999999999,0.97360898828125,9.36212,0.96596098828125Q9.31889,0.95831298828125,9.275,0.95831298828125L4.725,0.95831298828125Q4.681106,0.95831298828125,4.637883,0.96596098828125Q4.594661,0.97360898828125,4.553432,0.98866998828125Q4.512203,1.0037319882812499,4.4742286,1.02574698828125Q4.4362544,1.04776098828125,4.4026968,1.07605598828125Q4.36913914,1.10434998828125,4.3410246,1.13805898828125Q4.3129101,1.17176698828125,4.2910988,1.20985898828125Q4.269287,1.24794998828125,4.254447,1.28925898828125Q4.239606,1.33056798828125,4.232189,1.37383098828125L3.882189,3.41549298828125L4.867811,3.58446298828125L5.14658,1.95831298828125L8.85342,1.95831298828125Z" fill-rule="evenodd" fill="#333333" fill-opacity="1"/></g><g><path d="M1.75,4L12.25,4Q12.2992,4,12.3475,3.990393Q12.3958,3.980785,12.4413,3.9619400000000002Q12.4868,3.943094,12.5278,3.915735Q12.5687,3.888375,12.6036,3.853553Q12.6384,3.818731,12.6657,3.777785Q12.6931,3.736839,12.7119,3.691342Q12.7308,3.645845,12.7404,3.5975451Q12.75,3.5492457,12.75,3.5Q12.75,3.4507543,12.7404,3.4024549Q12.7308,3.354155,12.7119,3.308658Q12.6931,3.263161,12.6657,3.222215Q12.6384,3.181269,12.6036,3.146447Q12.5687,3.111625,12.5278,3.084265Q12.4868,3.056906,12.4413,3.0380599999999998Q12.3958,3.019215,12.3475,3.009607Q12.2992,3,12.25,3L1.75,3Q1.7007543,3,1.6524549,3.009607Q1.604155,3.019215,1.5586579999999999,3.0380599999999998Q1.513161,3.056906,1.472215,3.084265Q1.431269,3.111625,1.396447,3.146447Q1.361625,3.181269,1.334265,3.222215Q1.3069060000000001,3.263161,1.28806,3.308658Q1.269215,3.354155,1.259607,3.4024549Q1.25,3.4507543,1.25,3.5Q1.25,3.5492457,1.259607,3.5975451Q1.269215,3.645845,1.28806,3.691342Q1.3069060000000001,3.736839,1.334265,3.777785Q1.361625,3.818731,1.396447,3.853553Q1.431269,3.888375,1.472215,3.915735Q1.513161,3.943094,1.5586579999999999,3.9619400000000002Q1.604155,3.980785,1.6524549,3.990393Q1.7007543,4,1.75,4Z" fill-rule="evenodd" fill="#333333" fill-opacity="1"/></g><g><path d="M10.79182609375,3L3.20849609375,3Q3.19238379375,3,3.17630499375,3.001037Q3.12716139375,3.004208,3.07958109375,3.016905Q3.03200009375,3.029602,2.98781109375,3.051338Q2.94362109375,3.073073,2.90452109375,3.103012Q2.86542109375,3.132951,2.83291409375,3.169943Q2.80040609375,3.206934,2.77573909375,3.249557Q2.75107309375,3.29218,2.73519609375,3.338796Q2.71931809375,3.385412,2.71284109375,3.4342297999999998Q2.70636309375,3.4830476,2.70953309375,3.5321911L3.29286679375,12.57386Q3.29590649375,12.62097,3.30771189375,12.66669Q3.31951709375,12.7124,3.33967109375,12.7551Q3.35982409375,12.79779,3.38761409375,12.83596Q3.41540409375,12.87413,3.44984709375,12.90642Q3.48429009375,12.93872,3.52416809375,12.96399Q3.56404709375,12.98926,3.60795209375,13.00663Q3.65185709375,13.02399,3.69823709375,13.03283Q3.74461609375,13.04167,3.79182909375,13.04167L10.20849609375,13.04167Q10.25570609375,13.04167,10.302086093749999,13.03283Q10.34846609375,13.02399,10.39237609375,13.00663Q10.43627609375,12.98926,10.47615609375,12.96399Q10.51603609375,12.93872,10.55047609375,12.90642Q10.58492609375,12.87413,10.612716093749999,12.83596Q10.64050609375,12.79779,10.66065609375,12.7551Q10.68080609375,12.7124,10.69261609375,12.66669Q10.70441609375,12.62097,10.70745609375,12.57386L11.29079609375,3.5321911Q11.29182609375,3.5161123,11.29182609375,3.5Q11.29182609375,3.4507543,11.28221609375,3.4024549Q11.27261609375,3.354155,11.25376609375,3.308658Q11.23492609375,3.263161,11.20756609375,3.222215Q11.18020609375,3.181269,11.14538609375,3.146447Q11.110556093749999,3.111625,11.06961609375,3.084265Q11.028666093750001,3.056906,10.98316609375,3.0380599999999998Q10.93767609375,3.019215,10.88937609375,3.009607Q10.84107609375,3,10.79182609375,3ZM3.7417940937500003,4L4.26060609375,12.04167L9.739716093750001,12.04167L10.25853609375,4L3.7417940937500003,4Z" fill-rule="evenodd" fill="#333333" fill-opacity="1"/></g><g><path d="M5.54150390625,10.70831298828125L8.45817390625,10.70831298828125Q8.507413906250001,10.70831298828125,8.55571390625,10.69870598828125Q8.60401390625,10.689097988281251,8.64951390625,10.67025298828125Q8.69501390625,10.65140698828125,8.73595390625,10.62404798828125Q8.77690390625,10.59668798828125,8.81172390625,10.56186598828125Q8.84654390625,10.52704398828125,8.87390390625,10.48609798828125Q8.90126390625,10.44515198828125,8.92011390625,10.39965498828125Q8.93895390625,10.35415798828125,8.94856390625,10.30585808828125Q8.95817390625,10.25755868828125,8.95817390625,10.20831298828125Q8.95817390625,10.15906728828125,8.94856390625,10.11076788828125Q8.93895390625,10.06246798828125,8.92011390625,10.01697098828125Q8.90126390625,9.97147398828125,8.87390390625,9.93052798828125Q8.84654390625,9.88958198828125,8.81172390625,9.85475998828125Q8.77690390625,9.81993798828125,8.73595390625,9.79257798828125Q8.69501390625,9.76521898828125,8.64951390625,9.74637298828125Q8.60401390625,9.727527988281249,8.55571390625,9.71791998828125Q8.507413906250001,9.70831298828125,8.45817390625,9.70831298828125L5.54150390625,9.70831298828125Q5.49225820625,9.70831298828125,5.44395880625,9.71791998828125Q5.39565890625,9.727527988281249,5.35016190625,9.74637298828125Q5.30466490625,9.76521898828125,5.26371890625,9.79257798828125Q5.22277290625,9.81993798828125,5.18795090625,9.85475998828125Q5.15312890625,9.88958198828125,5.12576890625,9.93052798828125Q5.09840990625,9.97147398828125,5.07956390625,10.01697098828125Q5.06071890625,10.06246798828125,5.05111090625,10.11076788828125Q5.04150390625,10.15906728828125,5.04150390625,10.20831298828125Q5.04150390625,10.25755868828125,5.05111090625,10.30585808828125Q5.06071890625,10.35415798828125,5.07956390625,10.39965498828125Q5.09840990625,10.44515198828125,5.12576890625,10.48609798828125Q5.15312890625,10.52704398828125,5.18795090625,10.56186598828125Q5.22277290625,10.59668798828125,5.26371890625,10.62404798828125Q5.30466490625,10.65140698828125,5.35016190625,10.67025298828125Q5.39565890625,10.689097988281251,5.44395880625,10.69870598828125Q5.49225820625,10.70831298828125,5.54150390625,10.70831298828125Z" fill-rule="evenodd" fill="#333333" fill-opacity="1"/></g></g></svg>