<svg xmlns="http://www.w3.org/2000/svg" xmlns:xlink="http://www.w3.org/1999/xlink" fill="none" version="1.1" width="14" height="14" viewBox="0 0 14 14"><defs><clipPath id="master_svg0_123_0859"><rect x="0" y="0" width="14" height="14" rx="0"/></clipPath></defs><g clip-path="url(#master_svg0_123_0859)"><g><rect x="0" y="0" width="14" height="14" rx="0" fill="#FFFFFF" fill-opacity="0.009999999776482582"/></g><g transform="matrix(1,0,0,-1,0,8.166656494140625)"><path d="M1.25,6.416658247070313L1.25,4.0833282470703125Q1.25,4.034082547070312,1.259607,3.9857831470703124Q1.269215,3.9374832470703125,1.28806,3.8919862470703124Q1.3069060000000001,3.8464892470703127,1.334265,3.8055432470703123Q1.361625,3.7645972470703124,1.396447,3.7297752470703127Q1.431269,3.6949532470703126,1.472215,3.6675932470703123Q1.513161,3.6402342470703126,1.5586579999999999,3.6213882470703123Q1.604155,3.6025432470703125,1.6524549,3.5929352470703124Q1.7007543,3.5833282470703125,1.75,3.5833282470703125L12.25,3.5833282470703125Q12.2992,3.5833282470703125,12.3475,3.5929352470703124Q12.3958,3.6025432470703125,12.4413,3.6213882470703123Q12.4868,3.6402342470703126,12.5278,3.6675932470703123Q12.5687,3.6949532470703126,12.6036,3.7297752470703127Q12.6384,3.7645972470703124,12.6657,3.8055432470703123Q12.6931,3.8464892470703127,12.7119,3.8919862470703124Q12.7308,3.9374832470703125,12.7404,3.9857831470703124Q12.75,4.034082547070312,12.75,4.0833282470703125L12.75,6.416658247070313Q12.75,6.465908247070312,12.7404,6.514208247070313Q12.7308,6.562508247070312,12.7119,6.607998247070313Q12.6931,6.653498247070313,12.6657,6.694448247070312Q12.6384,6.735388247070313,12.6036,6.7702182470703125Q12.5687,6.805038247070312,12.5278,6.832398247070312Q12.4868,6.859758247070312,12.4413,6.878598247070313Q12.3958,6.8974482470703125,12.3475,6.907058247070312Q12.2992,6.916658247070313,12.25,6.916658247070313L1.75,6.916658247070313Q1.7007543,6.916658247070313,1.6524549,6.907058247070312Q1.604155,6.8974482470703125,1.5586579999999999,6.878598247070313Q1.513161,6.859758247070312,1.472215,6.832398247070312Q1.431269,6.805038247070312,1.396447,6.7702182470703125Q1.361625,6.735388247070313,1.334265,6.694448247070312Q1.3069060000000001,6.653498247070313,1.28806,6.607998247070313Q1.269215,6.562508247070312,1.259607,6.514208247070313Q1.25,6.465908247070312,1.25,6.416658247070313ZM2.25,4.5833282470703125L2.25,5.916658247070313L11.75,5.916658247070313L11.75,4.5833282470703125L2.25,4.5833282470703125Z" fill="#333333" fill-opacity="1"/></g><g transform="matrix(1,0,0,-1,0,16.333343505859375)"><path d="M1.25,10.500001752929688L1.25,8.166671752929688Q1.25,8.117426052929687,1.259607,8.069126652929688Q1.269215,8.020826752929688,1.28806,7.975329752929688Q1.3069060000000001,7.929832752929688,1.334265,7.888886752929688Q1.361625,7.847940752929688,1.396447,7.813118752929688Q1.431269,7.778296752929688,1.472215,7.750936752929688Q1.513161,7.723577752929687,1.5586579999999999,7.704731752929687Q1.604155,7.6858867529296875,1.6524549,7.676278752929687Q1.7007543,7.6666717529296875,1.75,7.6666717529296875L12.25,7.6666717529296875Q12.2992,7.6666717529296875,12.3475,7.676278752929687Q12.3958,7.6858867529296875,12.4413,7.704731752929687Q12.4868,7.723577752929687,12.5278,7.750936752929688Q12.5687,7.778296752929688,12.6036,7.813118752929688Q12.6384,7.847940752929688,12.6657,7.888886752929688Q12.6931,7.929832752929688,12.7119,7.975329752929688Q12.7308,8.020826752929688,12.7404,8.069126652929688Q12.75,8.117426052929687,12.75,8.166671752929688L12.75,10.500001752929688Q12.75,10.549251752929688,12.7404,10.597551752929688Q12.7308,10.645851752929687,12.7119,10.691341752929688Q12.6931,10.736841752929688,12.6657,10.777791752929687Q12.6384,10.818731752929688,12.6036,10.853561752929688Q12.5687,10.888381752929687,12.5278,10.915741752929687Q12.4868,10.943101752929687,12.4413,10.961941752929688Q12.3958,10.980791752929687,12.3475,10.990401752929687Q12.2992,11.000001752929688,12.25,11.000001752929688L1.75,11.000001752929688Q1.7007543,11.000001752929688,1.6524549,10.990401752929687Q1.604155,10.980791752929687,1.5586579999999999,10.961941752929688Q1.513161,10.943101752929687,1.472215,10.915741752929687Q1.431269,10.888381752929687,1.396447,10.853561752929688Q1.361625,10.818731752929688,1.334265,10.777791752929687Q1.3069060000000001,10.736841752929688,1.28806,10.691341752929688Q1.269215,10.645851752929687,1.259607,10.597551752929688Q1.25,10.549251752929688,1.25,10.500001752929688ZM2.25,8.666671752929688L2.25,10.000001752929688L11.75,10.000001752929688L11.75,8.666671752929688L2.25,8.666671752929688Z" fill="#333333" fill-opacity="1"/></g><g><path d="M5.603613,10.146506L5.603553,10.146447Q5.533227,10.07612,5.441342,10.03806Q5.3494562,10,5.25,10Q5.1505438,10,5.058658,10.03806Q4.966773,10.07612,4.896447,10.146447Q4.82612,10.216773,4.78806,10.308658Q4.75,10.4005438,4.75,10.5Q4.75,10.5994562,4.78806,10.691342Q4.82612,10.783227,4.896447,10.853553L6.64645,12.60355Q6.71677,12.67388,6.80866,12.71194Q6.9005399999999995,12.75,7,12.75Q7.0994600000000005,12.75,7.19134,12.71194Q7.28323,12.67388,7.35355,12.60355L9.10337,10.853741L9.10355,10.853553Q9.17388,10.783227,9.21194,10.691342Q9.25,10.5994562,9.25,10.5Q9.25,10.4005438,9.21194,10.308658Q9.17388,10.216773,9.10355,10.146447Q9.03323,10.07612,8.94134,10.03806Q8.84946,10,8.75,10Q8.65054,10,8.55866,10.03806Q8.46677,10.07612,8.39645,10.146447L8.39626,10.146634L7,11.54289L5.603613,10.146506Z" fill-rule="evenodd" fill="#333333" fill-opacity="1"/></g><g><path d="M7.5,12.250001752929688L7.5,8.166671752929688Q7.5,8.117426052929687,7.490393,8.069126652929688Q7.480785,8.020826752929688,7.46194,7.975329752929688Q7.443094,7.929832752929688,7.415735,7.888886752929688Q7.388375,7.847940752929688,7.353553,7.813118752929688Q7.318731,7.778296752929688,7.277785,7.750936752929688Q7.236839,7.723577752929687,7.191342,7.704731752929687Q7.145845,7.6858867529296875,7.0975451,7.676278752929687Q7.0492457,7.6666717529296875,7,7.6666717529296875Q6.9507543,7.6666717529296875,6.9024549,7.676278752929687Q6.854155,7.6858867529296875,6.808658,7.704731752929687Q6.763161,7.723577752929687,6.722215,7.750936752929688Q6.681269,7.778296752929688,6.646447,7.813118752929688Q6.611625,7.847940752929688,6.584265,7.888886752929688Q6.556906,7.929832752929688,6.53806,7.975329752929688Q6.519215,8.020826752929688,6.509607,8.069126652929688Q6.5,8.117426052929687,6.5,8.166671752929688L6.5,12.250001752929688Q6.5,12.299251752929688,6.509607,12.347551752929688Q6.519215,12.395851752929687,6.53806,12.441341752929688Q6.556906,12.486841752929688,6.584265,12.527791752929687Q6.611625,12.568731752929686,6.646447,12.603561752929688Q6.681269,12.638381752929687,6.722215,12.665741752929687Q6.763161,12.693101752929689,6.808658,12.711941752929688Q6.854155,12.730791752929687,6.9024549,12.740401752929689Q6.9507543,12.750001752929688,7,12.750001752929688Q7.0492457,12.750001752929688,7.0975451,12.740401752929689Q7.145845,12.730791752929687,7.191342,12.711941752929688Q7.236839,12.693101752929689,7.277785,12.665741752929687Q7.318731,12.638381752929687,7.353553,12.603561752929688Q7.388375,12.568731752929686,7.415735,12.527791752929687Q7.443094,12.486841752929688,7.46194,12.441341752929688Q7.480785,12.395851752929687,7.490393,12.347551752929688Q7.5,12.299251752929688,7.5,12.250001752929688Z" fill-rule="evenodd" fill="#333333" fill-opacity="1"/></g><g><path d="M6.5,4.0833282470703125L6.5,5.8333282470703125Q6.5,5.882578247070312,6.509607,5.930868247070313Q6.519215,5.979168247070312,6.53806,6.024668247070313Q6.556906,6.070168247070312,6.584265,6.111108247070312Q6.611625,6.152058247070313,6.646447,6.186878247070313Q6.681269,6.221698247070313,6.722215,6.249058247070312Q6.763161,6.276418247070312,6.808658,6.295268247070313Q6.854155,6.314108247070313,6.9024549,6.323718247070312Q6.9507543,6.3333282470703125,7,6.3333282470703125Q7.0492457,6.3333282470703125,7.0975451,6.323718247070312Q7.145845,6.314108247070313,7.191342,6.295268247070313Q7.236839,6.276418247070312,7.277785,6.249058247070312Q7.318731,6.221698247070313,7.353553,6.186878247070313Q7.388375,6.152058247070313,7.415735,6.111108247070312Q7.443094,6.070168247070312,7.46194,6.024668247070313Q7.480785,5.979168247070312,7.490393,5.930868247070313Q7.5,5.882578247070312,7.5,5.8333282470703125L7.5,4.0833282470703125Q7.5,4.034082547070312,7.490393,3.9857831470703124Q7.480785,3.9374832470703125,7.46194,3.8919862470703124Q7.443094,3.8464892470703127,7.415735,3.8055432470703123Q7.388375,3.7645972470703124,7.353553,3.7297752470703127Q7.318731,3.6949532470703126,7.277785,3.6675932470703123Q7.236839,3.6402342470703126,7.191342,3.6213882470703123Q7.145845,3.6025432470703125,7.0975451,3.5929352470703124Q7.0492457,3.5833282470703125,7,3.5833282470703125Q6.9507543,3.5833282470703125,6.9024549,3.5929352470703124Q6.854155,3.6025432470703125,6.808658,3.6213882470703123Q6.763161,3.6402342470703126,6.722215,3.6675932470703123Q6.681269,3.6949532470703126,6.646447,3.7297752470703127Q6.611625,3.7645972470703124,6.584265,3.8055432470703123Q6.556906,3.8464892470703127,6.53806,3.8919862470703124Q6.519215,3.9374832470703125,6.509607,3.9857831470703124Q6.5,4.034082547070312,6.5,4.0833282470703125Z" fill-rule="evenodd" fill="#333333" fill-opacity="1"/></g></g></svg>