<svg xmlns="http://www.w3.org/2000/svg" xmlns:xlink="http://www.w3.org/1999/xlink" fill="none" version="1.1" width="14" height="14" viewBox="0 0 14 14"><defs><clipPath id="master_svg0_123_0844"><rect x="0" y="0" width="14" height="14" rx="0"/></clipPath></defs><g clip-path="url(#master_svg0_123_0844)"><g><path d="M5.16650390625,11.958326494140625L5.16650390625,9.333326494140625Q5.16650390625,9.284076494140624,5.15689690625,9.235776494140625Q5.14728890625,9.187476494140626,5.12844390625,9.141976494140625Q5.10959790625,9.096486494140624,5.08223890625,9.055536494140625Q5.05487890625,9.014586494140625,5.02005690625,8.979766494140625Q4.98523490625,8.944946494140625,4.94428890625,8.917586494140625Q4.90334290625,8.890226494140624,4.85784590625,8.871386494140625Q4.81234890625,8.852536494140626,4.76404900625,8.842926494140624Q4.71574960625,8.833326494140625,4.66650390625,8.833326494140625Q4.61725820625,8.833326494140625,4.56895880625,8.842926494140624Q4.52065890625,8.852536494140626,4.47516190625,8.871386494140625Q4.42966490625,8.890226494140624,4.38871890625,8.917586494140625Q4.34777290625,8.944946494140625,4.31295090625,8.979766494140625Q4.27812890625,9.014586494140625,4.25076890625,9.055536494140625Q4.22340990625,9.096486494140624,4.20456390625,9.141976494140625Q4.18571890625,9.187476494140626,4.17611090625,9.235776494140625Q4.16650390625,9.284076494140624,4.16650390625,9.333326494140625L4.16650390625,11.958326494140625Q4.16650390625,12.407056494140626,4.48380190625,12.724356494140626Q4.80109890625,13.041656494140625,5.24983690625,13.041656494140625L11.95817390625,13.041656494140625Q12.406903906250001,13.041656494140625,12.72420390625,12.724356494140626Q13.04150390625,12.407056494140626,13.04150390625,11.958326494140625L13.04150390625,5.249989494140625Q13.04150390625,4.801252494140625,12.72420390625,4.483954494140625Q12.406903906250001,4.166656494140625,11.95817390625,4.166656494140625L9.33317390625,4.166656494140625Q9.28392390625,4.166656494140625,9.23562390625,4.176263494140625Q9.18732390625,4.185871494140625,9.14182390625,4.204716494140625Q9.096333906249999,4.223562494140625,9.05538390625,4.250921494140625Q9.01443390625,4.278281494140625,8.97961390625,4.313103494140625Q8.94479390625,4.347925494140625,8.91743390625,4.388871494140625Q8.890073906249999,4.429817494140625,8.87123390625,4.475314494140625Q8.852383906250001,4.520811494140625,8.842773906249999,4.569111394140625Q8.83317390625,4.617410794140625,8.83317390625,4.666656494140625Q8.83317390625,4.715902194140625,8.842773906249999,4.764201594140625Q8.852383906250001,4.812501494140625,8.87123390625,4.857998494140625Q8.890073906249999,4.903495494140625,8.91743390625,4.944441494140625Q8.94479390625,4.985387494140625,8.97961390625,5.020209494140625Q9.01443390625,5.055031494140625,9.05538390625,5.082391494140625Q9.096333906249999,5.109750494140625,9.14182390625,5.128596494140625Q9.18732390625,5.147441494140625,9.23562390625,5.157049494140625Q9.28392390625,5.166656494140625,9.33317390625,5.166656494140625L11.95817390625,5.166656494140625Q12.04150390625,5.166656494140625,12.04150390625,5.249989494140625L12.04150390625,11.958326494140625Q12.04150390625,11.992846494140625,12.01709390625,12.017246494140625Q11.99269390625,12.041656494140625,11.95817390625,12.041656494140625L5.24983690625,12.041656494140625Q5.21531290625,12.041656494140625,5.19090790625,12.017246494140625Q5.16650390625,11.992846494140625,5.16650390625,11.958326494140625Z" fill-rule="evenodd" fill="#333333" fill-opacity="1"/></g><g><path d="M0.95849609375,7.3333282470703125L0.95849609375,3.4583282470703125Q0.95849609375,2.4227942470703123,1.69072909375,1.6905612470703124Q2.42296209375,0.9583282470703125,3.45849609375,0.9583282470703125L7.33349609375,0.9583282470703125Q8.36902609375,0.9583282470703125,9.101266093749999,1.6905612470703124Q9.83349609375,2.4227962470703126,9.83349609375,3.4583282470703125L9.83349609375,7.3333282470703125Q9.83349609375,8.368858247070312,9.101266093749999,9.101098247070311Q8.36902609375,9.833328247070312,7.33349609375,9.833328247070312L3.45849609375,9.833328247070312Q2.42296409375,9.833328247070312,1.69072909375,9.101098247070311Q0.95849609375,8.368858247070312,0.95849609375,7.3333282470703125ZM1.95849609375,7.3333282470703125Q1.95849609375,7.954648247070312,2.39783609375,8.393988247070313Q2.83717609375,8.833328247070312,3.45849609375,8.833328247070312L7.33349609375,8.833328247070312Q7.95481609375,8.833328247070312,8.39415609375,8.393988247070313Q8.83349609375,7.954648247070312,8.83349609375,7.3333282470703125L8.83349609375,3.4583282470703125Q8.83349609375,2.8370082470703126,8.39415609375,2.3976682470703126Q7.95481609375,1.9583282470703125,7.33349609375,1.9583282470703125L3.45849609375,1.9583282470703125Q2.83717609375,1.9583282470703125,2.39783609375,2.3976682470703126Q1.95849609375,2.8370082470703126,1.95849609375,3.4583282470703125L1.95849609375,7.3333282470703125Z" fill="#333333" fill-opacity="1"/></g><g><path d="M5.61655609375,1.7985542470703124Q5.62786609375,1.7863772470703125,5.63833609375,1.7734772470703124Q5.75016609375,1.6357422470703125,5.75016609375,1.4583282470703125Q5.75016609375,1.4490721870703125,5.74981609375,1.4398224470703125Q5.74932609375,1.4265895470703125,5.74813609375,1.4134010470703124Q5.73981609375,1.3211832470703124,5.69902609375,1.2380592470703125Q5.65823609375,1.1549362470703124,5.59038609375,1.0919312470703124Q5.57821609375,1.0806252470703126,5.56531609375,1.0701512470703125Q5.42757609375,0.9583282470703125,5.25016609375,0.9583282470703125Q5.145886093750001,0.9583282470703125,5.050306093750001,1.0000092470703126Q4.95471609375,1.0416902470703124,4.883766093749999,1.1181022470703126L4.8835960937500005,1.1182802470703126L1.09228709375,5.201238247070313L1.09209909375,5.201438247070312Q1.02769209375,5.270798247070312,0.99309409375,5.358898247070313Q0.95849609375,5.447008247070313,0.95849609375,5.541658247070313Q0.95849609375,5.550918247070313,0.95883909375,5.560168247070313Q0.96252009375,5.659558247070312,1.0039550937500001,5.749968247070313Q1.04539009375,5.840388247070313,1.11827009375,5.908058247070312Q1.18763209375,5.972468247070313,1.27573709375,6.007068247070312Q1.36384179375,6.041658247070313,1.45849609375,6.041658247070313L1.45900553375,6.041658247070313Q1.46800679375,6.041648247070312,1.47700189375,6.041318247070312Q1.57639009375,6.037638247070313,1.66680409375,5.996198247070312Q1.75721809375,5.954768247070312,1.82489309375,5.881888247070313L5.61655609375,1.7985542470703124Z" fill-rule="evenodd" fill="#333333" fill-opacity="1"/></g><g><path d="M7.50643609375,1.1206282470703126L1.08991909375,8.120468247070313Q1.02652109375,8.189628247070313,0.9925090937500001,8.277068247070313Q0.95849609375,8.364508247070312,0.95849609375,8.458328247070312Q0.95849609375,8.469188247070313,0.95896809375,8.480048247070313Q0.96328809375,8.579408247070312,1.00530409375,8.669558247070313Q1.04731909375,8.759698247070313,1.1206340937500001,8.826908247070312Q1.18979509375,8.890298247070312,1.2772350937499999,8.924318247070312Q1.36467419375,8.958328247070312,1.45849609375,8.958328247070312L1.45920905475,8.958328247070312Q1.46971679375,8.958308247070313,1.48021459375,8.957858247070313Q1.57957709375,8.953538247070313,1.66972209375,8.911518247070312Q1.75986809375,8.869508247070312,1.82707309375,8.796188247070312L8.24358609375,1.7963532470703125L8.24373609375,1.7961902470703124Q8.30713609375,1.7270292470703126,8.34114609375,1.6395902470703125Q8.37516609375,1.5521501470703125,8.37516609375,1.4583282470703123L8.37516609375,1.4576150240703125Q8.37514609375,1.4471072470703126,8.37468609375,1.4366094470703126Q8.37036609375,1.3372472470703125,8.32835609375,1.2471012470703124Q8.28633609375,1.1569562470703125,8.213026093749999,1.0897512470703126Q8.143866093749999,1.0263532470703125,8.05642609375,0.9923412470703126Q7.96898609375,0.9583282470703125,7.87516609375,0.9583282470703125Q7.86429609375,0.9583282470703125,7.85344609375,0.9588002470703125Q7.75408609375,0.9631202470703125,7.66393609375,1.0051362470703125Q7.57378609375,1.0471512470703126,7.50658609375,1.1204662470703126L7.50643609375,1.1206282470703126Z" fill-rule="evenodd" fill="#333333" fill-opacity="1"/></g><g><path d="M8.9631,2.5806277529296873L3.13003,8.997001752929688Q3.067278,9.066031752929687,3.033639,9.153041752929688Q3,9.240051752929688,3,9.333341752929687L3.000002,9.334611752929687Q3.0000299999999998,9.345871752929687,3.000566,9.357121752929688Q3.005297,9.456461752929687,3.047684,9.546431752929688Q3.090072,9.636401752929688,3.163664,9.703311752929688Q3.232691,9.766061752929687,3.319702,9.799701752929687Q3.4067127,9.833341752929687,3.5,9.833341752929687Q3.5118979,9.833341752929687,3.5237826,9.832771752929688Q3.623126,9.828041752929687,3.713097,9.785651752929688Q3.803069,9.743261752929687,3.86997,9.669671752929688L9.70304,3.2532997529296876L9.703299999999999,3.2530077529296877Q9.76605,3.1839807529296875,9.79969,3.0969697529296876Q9.83333,3.0099591529296874,9.83333,2.9166719794456877Q9.83333,2.9047737529296875,9.83277,2.8928891529296874Q9.82804,2.7935457529296874,9.78565,2.7035747529296876Q9.74326,2.6136027529296877,9.66967,2.5467017529296876Q9.60064,2.4839497529296874,9.51363,2.4503107529296875Q9.42662,2.4166717529296875,9.33333,2.4166717529296875L9.33206,2.4166737529296873Q9.3208,2.4167017529296873,9.30955,2.4172377529296876Q9.21021,2.4219687529296876,9.12023,2.4643557529296873Q9.03026,2.5067437529296877,8.96336,2.5803357529296873L8.9631,2.5806277529296873Z" fill-rule="evenodd" fill="#333333" fill-opacity="1"/></g><g><path d="M6.04655890625,8.996970000000001L6.04653390625,8.997Q5.98378190625,9.06602,5.95014290625,9.153030000000001Q5.91650390625,9.24005,5.91650390625,9.33333L5.91650590625,9.33461Q5.91653390625,9.34587,5.91706990625,9.35712Q5.92180090625,9.45646,5.96418790625,9.54643Q6.00657590625,9.6364,6.08016790625,9.7033Q6.14919490625,9.76606,6.23620590625,9.79969Q6.32321660625,9.83333,6.41650390625,9.83333L6.41777597625,9.83333Q6.42903760625,9.8333,6.44028650625,9.83277Q6.53962990625,9.82804,6.62960090625,9.78565Q6.71957290625,9.74326,6.78647390625,9.66967L6.78649990625,9.66964L9.70314390625,6.461336Q9.76589390625,6.392309,9.79953390625,6.305298Q9.83317390625,6.2182874,9.83317390625,6.125000182924L9.83316390625,6.12372793Q9.833143906250001,6.1124663,9.83260390625,6.1012174Q9.82787390625,6.001874,9.78548390625,5.911903Q9.74309390625,5.821931,9.66950390625,5.75503Q9.60048390625,5.692278,9.513473906249999,5.658639Q9.42645390625,5.625,9.33317390625,5.625L9.33189390625,5.625002Q9.32063390625,5.62503,9.30938390625,5.625566Q9.21004390625,5.630297,9.12007390625,5.672684Q9.03010390625,5.715072,8.96320390625,5.788664L6.04655890625,8.996970000000001Z" fill-rule="evenodd" fill="#333333" fill-opacity="1"/></g></g></svg>