<svg xmlns="http://www.w3.org/2000/svg" xmlns:xlink="http://www.w3.org/1999/xlink" fill="none" version="1.1" width="14" height="14" viewBox="0 0 14 14"><defs><clipPath id="master_svg0_123_0929"><rect x="0" y="0" width="14" height="14" rx="0"/></clipPath></defs><g clip-path="url(#master_svg0_123_0929)"><g><path d="M4.45849609375,2.333333L4.45849609375,4.95833Q4.45849609375,5.00758,4.46810309375,5.05588Q4.47771109375,5.1041799999999995,4.49655609375,5.14967Q4.51540209375,5.19517,4.54276109375,5.23612Q4.57012109375,5.2770600000000005,4.60494309375,5.31189Q4.63976509375,5.34671,4.68071109375,5.37407Q4.72165709375,5.4014299999999995,4.76715409375,5.42027Q4.81265109375,5.43912,4.86095099375,5.448729999999999Q4.90925039375,5.45833,4.95849609375,5.45833Q5.00774179375,5.45833,5.05604119375,5.448729999999999Q5.10434109375,5.43912,5.14983809375,5.42027Q5.19533509375,5.4014299999999995,5.23628109375,5.37407Q5.27722709375,5.34671,5.31204909375,5.31189Q5.34687109375,5.2770600000000005,5.37423109375,5.23612Q5.40159009375,5.19517,5.42043609375,5.14967Q5.43928109375,5.1041799999999995,5.44888909375,5.05588Q5.45849609375,5.00758,5.45849609375,4.95833L5.45849609375,2.333333Q5.45849609375,2.25,5.54182909375,2.25L11.66682609375,2.25Q11.75016609375,2.25,11.75016609375,2.333333L11.75016609375,8.45833Q11.75016609375,8.54167,11.66682609375,8.54167L9.04182609375,8.54167Q8.992586093749999,8.54167,8.94428609375,8.551269999999999Q8.89598609375,8.560880000000001,8.85048609375,8.57973Q8.80498609375,8.598569999999999,8.76404609375,8.62593Q8.72309609375,8.65329,8.68827609375,8.68811Q8.65345609375,8.72293,8.62609609375,8.76388Q8.59873609375,8.804829999999999,8.57988609375,8.85032Q8.56104609375,8.89582,8.55143609375,8.94412Q8.54182609375,8.99242,8.54182609375,9.04167Q8.54182609375,9.090910000000001,8.55143609375,9.13921Q8.56104609375,9.18751,8.57988609375,9.23301Q8.59873609375,9.278500000000001,8.62609609375,9.31945Q8.65345609375,9.3604,8.68827609375,9.39522Q8.72309609375,9.43004,8.76404609375,9.4574Q8.80498609375,9.48476,8.85048609375,9.50361Q8.89598609375,9.52245,8.94428609375,9.532060000000001Q8.992586093749999,9.54167,9.04182609375,9.54167L11.66682609375,9.54167Q12.115566093750001,9.54167,12.43286609375,9.22437Q12.75016609375,8.907070000000001,12.75016609375,8.45833L12.75016609375,2.333333Q12.75016609375,1.884601,12.43286609375,1.567303Q12.115566093750001,1.25,11.66682609375,1.25L5.54182909375,1.25Q5.09309109375,1.25,4.77579209375,1.567303Q4.45849609375,1.884602,4.45849609375,2.333333Z" fill-rule="evenodd" fill="#333333" fill-opacity="1"/></g><g><path d="M9.54167,11.666673505859375L9.54167,9.041673505859375Q9.54167,8.992433505859374,9.532060000000001,8.944133505859375Q9.52245,8.895833505859375,9.50361,8.850333505859375Q9.48476,8.804833505859374,9.4574,8.763893505859375Q9.43004,8.722943505859375,9.39522,8.688123505859375Q9.3604,8.653303505859375,9.31945,8.625943505859375Q9.278500000000001,8.598583505859375,9.23301,8.579733505859375Q9.18751,8.560893505859376,9.13921,8.551283505859375Q9.090910000000001,8.541673505859375,9.04167,8.541673505859375Q8.99242,8.541673505859375,8.94412,8.551283505859375Q8.89582,8.560893505859376,8.85032,8.579733505859375Q8.804829999999999,8.598583505859375,8.76388,8.625943505859375Q8.72293,8.653303505859375,8.68811,8.688123505859375Q8.65329,8.722943505859375,8.62593,8.763893505859375Q8.598569999999999,8.804833505859374,8.57973,8.850333505859375Q8.560880000000001,8.895833505859375,8.551269999999999,8.944133505859375Q8.54167,8.992433505859374,8.54167,9.041673505859375L8.54167,11.666673505859375Q8.54167,11.750013505859375,8.45833,11.750013505859375L2.333333,11.750013505859375Q2.25,11.750013505859375,2.25,11.666673505859375L2.25,5.541676505859375Q2.25,5.458343505859375,2.333333,5.458343505859375L4.95833,5.458343505859375Q5.00758,5.458343505859375,5.05588,5.448736505859375Q5.1041799999999995,5.439128505859375,5.14967,5.420283505859375Q5.19517,5.401437505859375,5.23612,5.374078505859375Q5.2770600000000005,5.346718505859375,5.31189,5.311896505859375Q5.34671,5.277074505859375,5.37407,5.236128505859375Q5.4014299999999995,5.195182505859375,5.42027,5.149685505859375Q5.43912,5.104188505859375,5.448729999999999,5.055888605859375Q5.45833,5.007589205859375,5.45833,4.958343505859375Q5.45833,4.909097805859375,5.448729999999999,4.860798405859375Q5.43912,4.812498505859375,5.42027,4.767001505859375Q5.4014299999999995,4.721504505859375,5.37407,4.680558505859375Q5.34671,4.639612505859375,5.31189,4.604790505859375Q5.2770600000000005,4.569968505859375,5.23612,4.542608505859375Q5.19517,4.515249505859375,5.14967,4.496403505859375Q5.1041799999999995,4.477558505859375,5.05588,4.467950505859375Q5.00758,4.458343505859375,4.95833,4.458343505859375L2.333333,4.458343505859375Q1.884602,4.458343505859375,1.567303,4.775639505859375Q1.25,5.092938505859375,1.25,5.541676505859375L1.25,11.666673505859375Q1.25,12.115413505859376,1.567303,12.432713505859375Q1.884601,12.750013505859375,2.333333,12.750013505859375L8.45833,12.750013505859375Q8.907070000000001,12.750013505859375,9.22437,12.432713505859375Q9.54167,12.115413505859376,9.54167,11.666673505859375Z" fill-rule="evenodd" fill="#333333" fill-opacity="1"/></g><g><path d="M4.45849609375,7.041673505859375L4.45849609375,6.958343505859375Q4.45849609375,5.922809505859375,5.19072909375,5.190576505859375Q5.92296209375,4.458343505859375,6.95849609375,4.458343505859375L7.04182609375,4.458343505859375Q8.07736609375,4.458343505859375,8.80959609375,5.190576505859375Q9.54182609375,5.922809505859375,9.54182609375,6.958343505859375L9.54182609375,7.041673505859375Q9.54182609375,8.077213505859374,8.80959609375,8.809443505859376Q8.07736609375,9.541673505859375,7.04182609375,9.541673505859375L6.95849609375,9.541673505859375Q5.92296309375,9.541673505859375,5.19072909375,8.809443505859376Q4.45849609375,8.077213505859374,4.45849609375,7.041673505859375ZM5.45849609375,7.041673505859375Q5.45849609375,7.662993505859375,5.89783609375,8.102333505859376Q6.33717609375,8.541673505859375,6.95849609375,8.541673505859375L7.04182609375,8.541673505859375Q7.66314609375,8.541673505859375,8.10248609375,8.102333505859376Q8.54182609375,7.662993505859375,8.54182609375,7.041673505859375L8.54182609375,6.958343505859375Q8.54182609375,6.337023505859375,8.10248609375,5.897683505859375Q7.66314609375,5.458343505859375,7.04182609375,5.458343505859375L6.95849609375,5.458343505859375Q6.33717609375,5.458343505859375,5.89783609375,5.897683505859375Q5.45849609375,6.337023505859375,5.45849609375,6.958343505859375L5.45849609375,7.041673505859375Z" fill="#333333" fill-opacity="1"/></g></g></svg>