<svg xmlns="http://www.w3.org/2000/svg" xmlns:xlink="http://www.w3.org/1999/xlink" fill="none" version="1.1" width="14" height="14" viewBox="0 0 14 14"><defs><clipPath id="master_svg0_123_0824"><rect x="0" y="0" width="14" height="14" rx="0"/></clipPath></defs><g clip-path="url(#master_svg0_123_0824)"><g><path d="M4.16650390625,10.541671752929688L4.16650390625,6.6666717529296875Q4.16650390625,5.631137752929687,4.89873690625,4.898904752929687Q5.63096990625,4.1666717529296875,6.66650390625,4.1666717529296875L10.54150390625,4.1666717529296875Q11.57703390625,4.1666717529296875,12.309273906249999,4.898904752929687Q13.04150390625,5.631139752929688,13.04150390625,6.6666717529296875L13.04150390625,10.541671752929688Q13.04150390625,11.577201752929687,12.309273906249999,12.309441752929686Q11.57703390625,13.041671752929688,10.54150390625,13.041671752929688L6.66650390625,13.041671752929688Q5.63097190625,13.041671752929688,4.89873690625,12.309441752929686Q4.16650390625,11.577201752929687,4.16650390625,10.541671752929688ZM5.16650390625,10.541671752929688Q5.16650390625,11.162991752929688,5.60584390625,11.602331752929688Q6.04518390625,12.041671752929688,6.66650390625,12.041671752929688L10.54150390625,12.041671752929688Q11.16282390625,12.041671752929688,11.60216390625,11.602331752929688Q12.04150390625,11.162991752929688,12.04150390625,10.541671752929688L12.04150390625,6.6666717529296875Q12.04150390625,6.045351752929688,11.60216390625,5.606011752929687Q11.16282390625,5.1666717529296875,10.54150390625,5.1666717529296875L6.66650390625,5.1666717529296875Q6.04518390625,5.1666717529296875,5.60584390625,5.606011752929687Q5.16650390625,6.045351752929688,5.16650390625,6.6666717529296875L5.16650390625,10.541671752929688Z" fill="#333333" fill-opacity="1"/></g><g><path d="M8.83349609375,2.0416612470703126L8.83349609375,4.666658247070313Q8.83349609375,4.715908247070312,8.84310609375,4.764208247070313Q8.852706093750001,4.812508247070312,8.87155609375,4.857998247070313Q8.890396093749999,4.903498247070313,8.91775609375,4.944448247070312Q8.94511609375,4.985388247070313,8.97994609375,5.0202182470703125Q9.01476609375,5.055038247070312,9.05570609375,5.082398247070312Q9.09665609375,5.109758247070312,9.14215609375,5.128598247070313Q9.18764609375,5.1474482470703125,9.23594609375,5.157058247070312Q9.28424609375,5.166658247070313,9.33349609375,5.166658247070313Q9.37936609375,5.166658247070313,9.42447609375,5.158318247070312Q9.46722609375,5.150398247070313,9.50797609375,5.135228247070312Q9.54871609375,5.120058247070313,9.58623609375,5.098078247070312Q9.62374609375,5.076108247070312,9.65690609375,5.047978247070312Q9.69006609375,5.019858247070312,9.71787609375,4.986438247070312Q9.74567609375,4.953008247070312,9.76729609375,4.915288247070313Q9.78891609375,4.877568247070313,9.80370609375,4.836678247070313Q9.81848609375,4.795788247070313,9.82599609375,4.752968247070312Q9.83349609375,4.710138247070312,9.83349609375,4.666658247070313L9.83349609375,2.0416612470703126Q9.83349609375,1.5929302470703126,9.51619609375,1.2756302470703125Q9.198896093750001,0.9583282470703125,8.75015609375,0.9583282470703125L2.04182909375,0.9583282470703125Q1.59309809375,0.9583282470703125,1.27579709375,1.2756292470703126Q0.95849609375,1.5929302470703126,0.95849609375,2.0416612470703126L0.95849609375,8.749998247070312Q0.95849609375,9.198728247070314,1.27579909375,9.516028247070313Q1.59309809375,9.833328247070312,2.04182909375,9.833328247070312L4.66682609375,9.833328247070312Q4.71607609375,9.833328247070312,4.76437609375,9.823718247070312Q4.8126760937499995,9.814108247070312,4.85816609375,9.795268247070313Q4.90366609375,9.776418247070312,4.94461609375,9.749058247070312Q4.9855560937500005,9.721698247070313,5.02038609375,9.686878247070313Q5.05520609375,9.652058247070313,5.08256609375,9.611108247070312Q5.1099260937499995,9.570168247070313,5.12876609375,9.524668247070313Q5.14761609375,9.479168247070312,5.157226093749999,9.430868247070313Q5.16682609375,9.382568247070314,5.16682609375,9.333328247070312Q5.16682609375,9.284078247070312,5.157226093749999,9.235778247070312Q5.14761609375,9.187478247070313,5.12876609375,9.141988247070312Q5.1099260937499995,9.096488247070312,5.08256609375,9.055538247070313Q5.05520609375,9.014598247070312,5.02038609375,8.979778247070312Q4.9855560937500005,8.944948247070313,4.94461609375,8.917588247070313Q4.90366609375,8.890228247070311,4.85816609375,8.871388247070312Q4.8126760937499995,8.852538247070314,4.76437609375,8.842938247070313Q4.71607609375,8.833328247070312,4.66682609375,8.833328247070312L2.04182909375,8.833328247070312Q2.00730809375,8.833328247070312,1.98290209375,8.808918247070313Q1.95849609375,8.784518247070313,1.95849609375,8.749998247070312L1.95849609375,2.0416612470703126Q1.95849609375,1.9583282470703125,2.04182909375,1.9583282470703125L8.75015609375,1.9583282470703125Q8.83349609375,1.9583282470703125,8.83349609375,2.0416612470703126Z" fill-rule="evenodd" fill="#333333" fill-opacity="1"/></g><g><path d="M8.824563906249999,5.006897752929688Q8.83587390625,4.9947207529296875,8.84634390625,4.981820752929687Q8.95817390625,4.844085752929687,8.95817390625,4.6666717529296875Q8.95817390625,4.657415692929687,8.957823906249999,4.648165952929688Q8.95733390625,4.6349330529296875,8.95614390625,4.621744552929687Q8.947823906250001,4.529526752929687,8.90703390625,4.4464027529296875Q8.86624390625,4.363279752929688,8.79839390625,4.300274752929687Q8.786223906250001,4.288968752929687,8.773323906249999,4.278494752929688Q8.63558390625,4.1666717529296875,8.45817390625,4.1666717529296875Q8.35389390625,4.1666717529296875,8.25831390625,4.208352752929687Q8.162723906250001,4.250033752929688,8.09177390625,4.326445752929687L8.09160390625,4.326623752929687L4.30029490625,8.409581752929688L4.30010690625,8.409781752929687Q4.23569990625,8.479141752929687,4.20110190625,8.567241752929688Q4.16650390625,8.655351752929688,4.16650390625,8.750001752929688Q4.16650390625,8.759261752929689,4.16684690625,8.768511752929687Q4.17052790625,8.867901752929686,4.21196290625,8.958311752929689Q4.25339790625,9.048731752929687,4.32627790625,9.116401752929686Q4.3956399062500005,9.180811752929689,4.48374490625,9.215411752929686Q4.57184960625,9.250001752929688,4.66650390625,9.250001752929688L4.66701334625,9.250001752929688Q4.67601460625,9.249991752929688,4.68500970625,9.249661752929686Q4.78439790625,9.245981752929687,4.87481190625,9.204541752929687Q4.96522590625,9.163111752929687,5.03290090625,9.090231752929688L8.824563906249999,5.006897752929688Z" fill-rule="evenodd" fill="#333333" fill-opacity="1"/></g><g><path d="M10.71444390625,4.328971752929688L4.29792690625,11.328811752929688Q4.2345289062500004,11.397971752929688,4.20051690625,11.485411752929688Q4.16650390625,11.572851752929687,4.16650390625,11.666671752929688Q4.16650390625,11.677531752929688,4.16697590625,11.688391752929688Q4.17129590625,11.787751752929687,4.21331190625,11.877901752929688Q4.25532690625,11.968041752929688,4.32864190625,12.035251752929687Q4.39780290625,12.098641752929687,4.48524290625,12.132661752929687Q4.57268200625,12.166671752929688,4.66650390625,12.166671752929688L4.66721686725,12.166671752929688Q4.67772460625,12.166651752929688,4.68822240625,12.166201752929688Q4.78758490625,12.161881752929688,4.87772990625,12.119861752929687Q4.96787590625,12.077851752929687,5.03508090625,12.004531752929687L11.45159390625,5.0046967529296875L11.45174390625,5.004533752929688Q11.51514390625,4.935372752929688,11.54915390625,4.847933752929688Q11.58317390625,4.7604936529296875,11.58317390625,4.6666717529296875L11.58317390625,4.6659585299296875Q11.58315390625,4.655450752929688,11.58269390625,4.644952952929687Q11.57837390625,4.545590752929687,11.53636390625,4.4554447529296874Q11.49434390625,4.365299752929688,11.421033906249999,4.298094752929687Q11.351873906249999,4.234696752929688,11.26443390625,4.200684752929687Q11.17699390625,4.1666717529296875,11.08317390625,4.1666717529296875Q11.07230390625,4.1666717529296875,11.06145390625,4.167143752929688Q10.96209390625,4.171463752929688,10.87194390625,4.213479752929688Q10.78179390625,4.255494752929687,10.71459390625,4.328809752929687L10.71444390625,4.328971752929688Z" fill-rule="evenodd" fill="#333333" fill-opacity="1"/></g><g><path d="M12.17159609375,5.788956L6.33852609375,12.20533Q6.27577409375,12.27436,6.24213509375,12.36137Q6.20849609375,12.44838,6.20849609375,12.54167L6.20849809375,12.54294Q6.20852609375,12.5542,6.20906209375,12.56545Q6.21379309375,12.66479,6.25618009375,12.754760000000001Q6.29856809375,12.84473,6.37216009375,12.91164Q6.44118709375,12.97439,6.52819809375,13.00803Q6.61520879375,13.04167,6.70849609375,13.04167Q6.72039399375,13.04167,6.73227869375,13.0411Q6.83162209375,13.03637,6.92159309375,12.99398Q7.01156509375,12.95159,7.07846609375,12.878L12.91153609375,6.461628L12.911796093749999,6.461336Q12.97454609375,6.392309,13.00818609375,6.305298Q13.04182609375,6.2182874,13.04182609375,6.125000226516Q13.04182609375,6.113102,13.04126609375,6.1012174Q13.03653609375,6.001874,12.99414609375,5.911903Q12.95175609375,5.821931,12.87816609375,5.75503Q12.80913609375,5.692278,12.72212609375,5.658639Q12.63511609375,5.625,12.54182609375,5.625L12.54055609375,5.625002Q12.52929609375,5.62503,12.51804609375,5.625566Q12.41870609375,5.630297,12.32872609375,5.672684Q12.23875609375,5.715072,12.17185609375,5.788664L12.17159609375,5.788956Z" fill-rule="evenodd" fill="#333333" fill-opacity="1"/></g><g><path d="M9.255055,12.205298247070314L9.25503,12.205328247070312Q9.192278,12.274348247070312,9.158639,12.361358247070314Q9.125,12.448378247070313,9.125,12.541658247070313L9.125002,12.542938247070312Q9.12503,12.554198247070312,9.125566,12.565448247070313Q9.130297,12.664788247070312,9.172684,12.754758247070313Q9.215072,12.844728247070313,9.288664,12.911628247070313Q9.357690999999999,12.974388247070312,9.444702,13.008018247070313Q9.5317127,13.041658247070313,9.625,13.041658247070313L9.62627207,13.041658247070313Q9.6375337,13.041628247070312,9.6487826,13.041098247070313Q9.748126,13.036368247070312,9.838097,12.993978247070313Q9.928069,12.951588247070312,9.99497,12.877998247070312L9.994996,12.877968247070312L12.91164,9.669664247070312Q12.97439,9.600637247070313,13.00803,9.513626247070313Q13.04167,9.426615647070312,13.04167,9.333328429994312L13.04166,9.332056177070312Q13.041640000000001,9.320794547070312,13.0411,9.309545647070312Q13.03637,9.210202247070313,12.99398,9.120231247070313Q12.95159,9.030259247070312,12.878,8.963358247070312Q12.80898,8.900606247070312,12.721969999999999,8.866967247070313Q12.63495,8.833328247070312,12.54167,8.833328247070312L12.54039,8.833330247070313Q12.52913,8.833358247070313,12.51788,8.833894247070312Q12.41854,8.838625247070313,12.32857,8.881012247070313Q12.2386,8.923400247070312,12.1717,8.996992247070313L9.255055,12.205298247070314Z" fill-rule="evenodd" fill="#333333" fill-opacity="1"/></g></g></svg>